# vtk DataFile Version 2.0
sampleSurface
ASCII
DATASET POLYDATA
POINTS 241 double
0.05000000075 0.02500000037 0.004999999888
0.05999999866 0.02500000037 0.004999999888
0.05996917188 0.02578459121 0.004999999888
0.05987688527 0.02656434476 0.004999999888
0.0597236976 0.02733445354 0.004999999888
0.05951056629 0.02809016965 0.004999999888
0.05923879519 0.02882683463 0.004999999888
0.0589100644 0.02953990549 0.004999999888
0.05852640048 0.03022498637 0.004999999888
0.05809016898 0.03087785281 0.004999999888
0.05760405958 0.03149447963 0.004999999888
0.05707106739 0.03207106888 0.004999999888
0.05649448186 0.03260406107 0.004999999888
0.05587785318 0.03309017047 0.004999999888
0.05522498488 0.03352640197 0.004999999888
0.054539904 0.03391006589 0.004999999888
0.05382683501 0.03423879668 0.004999999888
0.05309017003 0.03451056406 0.004999999888
0.05233445391 0.03472369909 0.004999999888
0.05156434327 0.03487688303 0.004999999888
0.05078459159 0.03496917337 0.004999999888
0.05000000075 0.03500000015 0.004999999888
0.0492154099 0.03496917337 0.004999999888
0.04843565449 0.03487688303 0.004999999888
0.04766554758 0.03472369909 0.004999999888
0.04690983146 0.03451056406 0.004999999888
0.04617316648 0.03423879668 0.004999999888
0.04546009377 0.03391006589 0.004999999888
0.04477501288 0.03352640197 0.004999999888
0.04412214831 0.03309017047 0.004999999888
0.04350551963 0.03260406107 0.004999999888
0.04292893037 0.03207106888 0.004999999888
0.04239594191 0.03149447963 0.004999999888
0.04190982878 0.03087785281 0.004999999888
0.04147359729 0.03022498637 0.004999999888
0.04108993337 0.02953990549 0.004999999888
0.0407612063 0.02882683463 0.004999999888
0.0404894352 0.02809016965 0.004999999888
0.04027630016 0.02733445354 0.004999999888
0.04012311623 0.02656434476 0.004999999888
0.04003082588 0.02578459121 0.004999999888
0.03999999911 0.02500000037 0.004999999888
0.04003082588 0.02421540953 0.004999999888
0.04012311623 0.02343565598 0.004999999888
0.04027630016 0.02266554721 0.004999999888
0.0404894352 0.02190982923 0.004999999888
0.0407612063 0.02117316611 0.004999999888
0.04108993337 0.02046009526 0.004999999888
0.04147359729 0.01977501437 0.004999999888
0.04190982878 0.01912214793 0.004999999888
0.04239594191 0.01850551926 0.004999999888
0.04292893037 0.01792893186 0.004999999888
0.04350551963 0.01739593968 0.004999999888
0.04412214831 0.01690983027 0.004999999888
0.04477501288 0.01647359878 0.004999999888
0.04546009377 0.01608993486 0.004999999888
0.04617316648 0.01576120406 0.004999999888
0.04690983146 0.01548943482 0.004999999888
0.04766554758 0.01527630072 0.004999999888
0.04843565449 0.01512311678 0.004999999888
0.0492154099 0.01503082644 0.004999999888
0.05000000075 0.01499999966 0.004999999888
0.05078459159 0.01503082644 0.004999999888
0.05156434327 0.01512311678 0.004999999888
0.05233445391 0.01527630072 0.004999999888
0.05309017003 0.01548943482 0.004999999888
0.05382683501 0.01576120406 0.004999999888
0.054539904 0.01608993486 0.004999999888
0.05522498488 0.01647359878 0.004999999888
0.05587785318 0.01690983027 0.004999999888
0.05649448186 0.01739593968 0.004999999888
0.05707106739 0.01792893186 0.004999999888
0.05760405958 0.01850551926 0.004999999888
0.05809016898 0.01912214793 0.004999999888
0.05852640048 0.01977501437 0.004999999888
0.0589100644 0.02046009526 0.004999999888
0.05923879519 0.02117316611 0.004999999888
0.05951056629 0.02190982923 0.004999999888
0.0597236976 0.02266554721 0.004999999888
0.05987688527 0.02343565598 0.004999999888
0.05996917188 0.02421540953 0.004999999888
0.07500000298 0.02500000037 0.004999999888
0.07492293417 0.02696147747 0.004999999888
0.07469221205 0.02891086228 0.004999999888
0.07430924475 0.03083613329 0.004999999888
0.07377641648 0.03272542357 0.004999999888
0.07309699059 0.03456708416 0.004999999888
0.07227516174 0.03634976223 0.004999999888
0.0713160038 0.03806246445 0.004999999888
0.07022542506 0.03969462961 0.004999999888
0.06901014596 0.04123619944 0.004999999888
0.06767766923 0.04267767072 0.004999999888
0.06623619795 0.04401014745 0.004999999888
0.06469462812 0.04522542655 0.004999999888
0.06306246668 0.04631600529 0.004999999888
0.06134976074 0.04727516323 0.004999999888
0.0595670864 0.04809698835 0.004999999888
0.05772542581 0.04877641425 0.004999999888
0.05583613366 0.04930924624 0.004999999888
0.05391086265 0.04969220981 0.004999999888
0.05196147785 0.04992293194 0.004999999888
0.05000000075 0.05000000075 0.004999999888
0.04803852364 0.04992293194 0.004999999888
0.04608913884 0.04969220981 0.004999999888
0.04416386411 0.04930924624 0.004999999888
0.04227457568 0.04877641425 0.004999999888
0.04043291509 0.04809698835 0.004999999888
0.03865023702 0.04727516323 0.004999999888
0.03693753481 0.04631600529 0.004999999888
0.03530536965 0.04522542655 0.004999999888
0.03376379982 0.04401014745 0.004999999888
0.03232233226 0.04267767072 0.004999999888
0.03098984994 0.04123619944 0.004999999888
0.02977457456 0.03969462961 0.004999999888
0.02868399583 0.03806246445 0.004999999888
0.02772483602 0.03634976223 0.004999999888
0.0269030109 0.03456708416 0.004999999888
0.02622358687 0.03272542357 0.004999999888
0.02569075115 0.03083613329 0.004999999888
0.02530779131 0.02891086228 0.004999999888
0.02507706732 0.02696147747 0.004999999888
0.02500000037 0.02500000037 0.004999999888
0.02507706732 0.02303852327 0.004999999888
0.02530779131 0.02108913846 0.004999999888
0.02569075115 0.0191638656 0.004999999888
0.02622358687 0.01727457531 0.004999999888
0.0269030109 0.01543291379 0.004999999888
0.02772483602 0.01365023758 0.004999999888
0.02868399583 0.0119375363 0.004999999888
0.02977457456 0.01030536834 0.004999999888
0.03098984994 0.008763798513 0.004999999888
0.03232233226 0.007322330493 0.004999999888
0.03376379982 0.005989850964 0.004999999888
0.03530536965 0.004774575122 0.004999999888
0.03693753481 0.003683995921 0.004999999888
0.03865023702 0.002724836813 0.004999999888
0.04043291509 0.001903011696 0.004999999888
0.04227457568 0.001223587082 0.004999999888
0.04416386411 0.0006907520001 0.004999999888
0.04608913884 0.000307791488 0.004999999888
0.04803852364 7.706665929e-05 0.004999999888
0.05000000075 0 0.004999999888
0.05196147785 7.706665929e-05 0.004999999888
0.05391086265 0.000307791488 0.004999999888
0.05583613366 0.0006907520001 0.004999999888
0.05772542581 0.001223587082 0.004999999888
0.0595670864 0.001903011696 0.004999999888
0.06134976074 0.002724836813 0.004999999888
0.06306246668 0.003683995921 0.004999999888
0.06469462812 0.004774575122 0.004999999888
0.06623619795 0.005989850964 0.004999999888
0.06767766923 0.007322330493 0.004999999888
0.06901014596 0.008763798513 0.004999999888
0.07022542506 0.01030536834 0.004999999888
0.0713160038 0.0119375363 0.004999999888
0.07227516174 0.01365023758 0.004999999888
0.07309699059 0.01543291379 0.004999999888
0.07377641648 0.01727457531 0.004999999888
0.07430924475 0.0191638656 0.004999999888
0.07469221205 0.02108913846 0.004999999888
0.07492293417 0.02303852327 0.004999999888
0.1000000015 0.02500000037 0.004999999888
0.09984586388 0.02892295457 0.004999999888
0.09938441962 0.03282172233 0.004999999888
0.09861849248 0.03667226806 0.004999999888
0.09755282849 0.04045084864 0.004999999888
0.0961939767 0.04413416982 0.004999999888
0.09455032647 0.04769952595 0.004999999888
0.09263201058 0.05112492666 0.004999999888
0.09045085311 0.05438926443 0.004999999888
0.0880202949 0.05747240409 0.004999999888
0.08535534143 0.0603553392 0.004999999888
0.08247239888 0.06302029639 0.004999999888
0.07938925922 0.06545084715 0.004999999888
0.07612492889 0.06763200462 0.004999999888
0.07269952446 0.06955032796 0.004999999888
0.06913416833 0.07119397819 0.004999999888
0.06545084715 0.07255282253 0.004999999888
0.06167226657 0.07361849397 0.004999999888
0.05782172456 0.07438441366 0.004999999888
0.05392295495 0.07484586537 0.004999999888
0.05000000075 0.07500000298 0.004999999888
0.04607704654 0.07484586537 0.004999999888
0.04217827693 0.07438441366 0.004999999888
0.03832773119 0.07361849397 0.004999999888
0.03454915062 0.07255282253 0.004999999888
0.03086582758 0.07119397819 0.004999999888
0.02730047517 0.06955032796 0.004999999888
0.0238750726 0.06763200462 0.004999999888
0.02061073668 0.06545084715 0.004999999888
0.01752759703 0.06302029639 0.004999999888
0.01464466099 0.0603553392 0.004999999888
0.01197970193 0.05747240409 0.004999999888
0.009549150243 0.05438926443 0.004999999888
0.007367991842 0.05112492666 0.004999999888
0.005449673627 0.04769952595 0.004999999888
0.003806023393 0.04413416982 0.004999999888
0.002447174164 0.04045084864 0.004999999888
0.001381504 0.03667226806 0.004999999888
0.000615582976 0.03282172233 0.004999999888
0.0001541333186 0.02892295457 0.004999999888
0 0.02500000037 0.004999999888
0.0001541333186 0.02107704431 0.004999999888
0.000615582976 0.01717827655 0.004999999888
0.001381504 0.01332773175 0.004999999888
0.002447174164 0.009549150243 0.004999999888
0.003806023393 0.0058658286 0.004999999888
0.005449673627 0.002300475026 0.004999999888
0.007367991842 -0.00112492824 0.004999999888
0.009549150243 -0.004389262758 0.004999999888
0.01197970193 -0.007472402416 0.004999999888
0.01464466099 -0.01035533939 0.004999999888
0.01752759703 -0.01302029844 0.004999999888
0.02061073668 -0.01545085013 0.004999999888
0.0238750726 -0.0176320076 0.004999999888
0.02730047517 -0.01955032535 0.004999999888
0.03086582758 -0.02119397745 0.004999999888
0.03454915062 -0.02255282551 0.004999999888
0.03832773119 -0.02361849509 0.004999999888
0.04217827693 -0.02438441664 0.004999999888
0.04607704654 -0.02484586649 0.004999999888
0.05000000075 -0.02500000037 0.004999999888
0.05392295495 -0.02484586649 0.004999999888
0.05782172456 -0.02438441664 0.004999999888
0.06167226657 -0.02361849509 0.004999999888
0.06545084715 -0.02255282551 0.004999999888
0.06913416833 -0.02119397745 0.004999999888
0.07269952446 -0.01955032535 0.004999999888
0.07612492889 -0.0176320076 0.004999999888
0.07938925922 -0.01545085013 0.004999999888
0.08247239888 -0.01302029844 0.004999999888
0.08535534143 -0.01035533939 0.004999999888
0.0880202949 -0.007472402416 0.004999999888
0.09045085311 -0.004389262758 0.004999999888
0.09263201058 -0.00112492824 0.004999999888
0.09455032647 0.002300475026 0.004999999888
0.0961939767 0.0058658286 0.004999999888
0.09755282849 0.009549150243 0.004999999888
0.09861849248 0.01332773175 0.004999999888
0.09938441962 0.01717827655 0.004999999888
0.09984586388 0.02107704431 0.004999999888

POLYGONS 30 490
10 0 1 2 3 4 5 6 7 8 9
10 0 9 10 11 12 13 14 15 16 17
10 0 17 18 19 20 21 22 23 24 25
10 0 25 26 27 28 29 30 31 32 33
10 0 33 34 35 36 37 38 39 40 41
10 0 41 42 43 44 45 46 47 48 49
10 0 49 50 51 52 53 54 55 56 57
10 0 57 58 59 60 61 62 63 64 65
10 0 65 66 67 68 69 70 71 72 73
10 0 73 74 75 76 77 78 79 80 1
18 1 2 3 4 5 6 7 8 9 89 88 87 86 85 84 83 82 81
18 9 10 11 12 13 14 15 16 17 97 96 95 94 93 92 91 90 89
18 17 18 19 20 21 22 23 24 25 105 104 103 102 101 100 99 98 97
18 25 26 27 28 29 30 31 32 33 113 112 111 110 109 108 107 106 105
18 33 34 35 36 37 38 39 40 41 121 120 119 118 117 116 115 114 113
18 41 42 43 44 45 46 47 48 49 129 128 127 126 125 124 123 122 121
18 49 50 51 52 53 54 55 56 57 137 136 135 134 133 132 131 130 129
18 57 58 59 60 61 62 63 64 65 145 144 143 142 141 140 139 138 137
18 65 66 67 68 69 70 71 72 73 153 152 151 150 149 148 147 146 145
18 73 74 75 76 77 78 79 80 1 81 160 159 158 157 156 155 154 153
18 81 82 83 84 85 86 87 88 89 169 168 167 166 165 164 163 162 161
18 89 90 91 92 93 94 95 96 97 177 176 175 174 173 172 171 170 169
18 97 98 99 100 101 102 103 104 105 185 184 183 182 181 180 179 178 177
18 105 106 107 108 109 110 111 112 113 193 192 191 190 189 188 187 186 185
18 113 114 115 116 117 118 119 120 121 201 200 199 198 197 196 195 194 193
18 121 122 123 124 125 126 127 128 129 209 208 207 206 205 204 203 202 201
18 129 130 131 132 133 134 135 136 137 217 216 215 214 213 212 211 210 209
18 137 138 139 140 141 142 143 144 145 225 224 223 222 221 220 219 218 217
18 145 146 147 148 149 150 151 152 153 233 232 231 230 229 228 227 226 225
18 153 154 155 156 157 158 159 160 81 161 240 239 238 237 236 235 234 233
CELL_DATA 30
FIELD attributes 1
massFlowRate 1 30 float
0 0 0 0 0 2.846013025e-08 2.689071607e-06 1.442586927e-05 2.811337026e-06 6.781120021e-08
0 0 0 0 0 3.130193704e-07 0.0001567774743 0.0002593829122 0.0001477777696 4.790223329e-07
0 0 0 0 0 0 0.0001402699418 0.0004916992038 0.0001430261618 0
